<?xml version="1.0" encoding="iso-8859-1"?>
<!-- Generator: Adobe Illustrator 19.0.0, SVG Export Plug-In . SVG Version: 6.00 Build 0)  -->
<svg version="1.1" id="Layer_1" xmlns="http://www.w3.org/2000/svg" xmlns:xlink="http://www.w3.org/1999/xlink" x="0px" y="0px"
	 viewBox="0 0 512 512" style="enable-background:new 0 0 512 512;" xml:space="preserve">
<polygon style="fill:#9B0013;" points="294.849,0 242.486,108.854 197.467,222.023 197.467,237.022 197.467,237.022 
	197.467,237.022 197.467,252.023 339.26,252.023 460.492,0 "/>
<polygon style="fill:#E70020;" points="217.156,0 51.508,0 172.746,252.02 338.394,252.02 "/>
<polygon style="fill:#AEADB3;" points="369.83,222.02 369.83,252.02 271,252.02 271,298.79 241,298.79 241,252.02 142.17,252.02 
	142.17,222.02 "/>
<polygon style="fill:#8B8892;" points="369.83,222.02 369.83,252.02 271,252.02 271,298.79 256,298.79 256,222.02 "/>
<polygon style="fill:#FFA91E;" points="320.26,423.55 335.43,512 256,470.24 176.57,512 191.74,423.55 127.48,360.91 216.28,348.01 
	256,267.54 295.72,348.01 384.52,360.91 "/>
<polygon style="fill:#FF8900;" points="320.26,423.55 335.43,512 256,470.24 256,267.54 295.72,348.01 384.52,360.91 "/>
<g>
</g>
<g>
</g>
<g>
</g>
<g>
</g>
<g>
</g>
<g>
</g>
<g>
</g>
<g>
</g>
<g>
</g>
<g>
</g>
<g>
</g>
<g>
</g>
<g>
</g>
<g>
</g>
<g>
</g>
</svg>
