<?xml version="1.0" encoding="iso-8859-1"?>
<!-- Generator: Adobe Illustrator 19.0.0, SVG Export Plug-In . SVG Version: 6.00 Build 0)  -->
<svg version="1.1" id="Layer_1" xmlns="http://www.w3.org/2000/svg" xmlns:xlink="http://www.w3.org/1999/xlink" x="0px" y="0px"
	 viewBox="0 0 512 512" style="enable-background:new 0 0 512 512;" xml:space="preserve">
<polygon style="fill:#FFA91E;" points="376.971,369.788 293.379,357.642 271.008,312.313 271.008,267.792 240.992,267.792 
	240.992,312.313 218.621,357.642 135.029,369.788 195.519,428.748 181.242,512 256,472.69 330.758,512 316.481,428.748 "/>
<polygon style="fill:#FF8900;" points="376.971,369.788 293.379,357.642 271.008,312.313 271.008,267.792 256,267.792 256,281.903 
	256,326.904 256,472.69 330.758,512 316.481,428.748 "/>
<path style="fill:#E70020;" d="M367.957,0v178.681c0,46.594-28.605,86.624-69.185,103.453c-9.425,3.922-19.5,6.583-30.015,7.774
	c-4.192,0.48-8.444,0.73-12.756,0.73s-8.564-0.25-12.756-0.73c-10.515-1.191-20.59-3.852-30.015-7.774
	c-40.581-16.829-69.185-56.859-69.185-103.453V0H367.957z"/>
<path style="fill:#9B0013;" d="M367.957,0v178.681c0,46.594-28.605,86.624-69.185,103.453c-9.425,3.922-19.5,6.583-30.015,7.774
	c-4.192,0.48-8.444,0.73-12.756,0.73V0H367.957z"/>
<path style="fill:#FFFFFF;" d="M243.244,0v289.907c-10.515-1.191-20.59-3.852-30.015-7.774V0H243.244z"/>
<path style="fill:#E1E1E4;" d="M298.772,0v282.133c-9.425,3.922-19.5,6.583-30.015,7.774V0H298.772z"/>
<g>
</g>
<g>
</g>
<g>
</g>
<g>
</g>
<g>
</g>
<g>
</g>
<g>
</g>
<g>
</g>
<g>
</g>
<g>
</g>
<g>
</g>
<g>
</g>
<g>
</g>
<g>
</g>
<g>
</g>
</svg>
