<?xml version="1.0" encoding="iso-8859-1"?>
<!-- Generator: Adobe Illustrator 19.0.0, SVG Export Plug-In . SVG Version: 6.00 Build 0)  -->
<svg version="1.1" id="Layer_1" xmlns="http://www.w3.org/2000/svg" xmlns:xlink="http://www.w3.org/1999/xlink" x="0px" y="0px"
	 viewBox="0 0 512 512" style="enable-background:new 0 0 512 512;" xml:space="preserve">
<polygon style="fill:#00BB64;" points="374.98,0 374.98,207.34 297.85,256 284.1,264.67 256,282.4 227.9,264.67 214.15,256 
	137.02,207.34 137.02,0 "/>
<polygon style="fill:#008C48;" points="374.98,0 374.98,207.34 297.85,256 284.1,264.67 256,282.4 256,0 "/>
<polygon style="fill:#FFFFFF;" points="244.15,0 244.15,264.67 227.9,264.67 214.15,256 214.15,0 "/>
<polygon style="fill:#E1E1E4;" points="297.85,0 297.85,256 284.1,264.67 267.85,264.67 267.85,0 "/>
<path style="fill:#FFB74D;" d="M385.91,382.09C385.91,453.72,327.63,512,256,512s-129.91-58.28-129.91-129.91
	S184.37,252.18,256,252.18S385.91,310.46,385.91,382.09z"/>
<path style="fill:#FFA91E;" d="M385.91,382.09C385.91,453.72,327.63,512,256,512V252.18C327.63,252.18,385.91,310.46,385.91,382.09z
	"/>
<path style="fill:#FF8900;" d="M256,294.07c-48.53,0-88.02,39.49-88.02,88.02c0,48.54,39.49,88.02,88.02,88.02
	s88.02-39.48,88.02-88.02C344.02,333.56,304.53,294.07,256,294.07z M256,440.11c-31.99,0-58.02-26.03-58.02-58.02
	s26.03-58.02,58.02-58.02s58.02,26.03,58.02,58.02S287.99,440.11,256,440.11z"/>
<path style="fill:#E57500;" d="M344.02,382.09c0,48.54-39.49,88.02-88.02,88.02v-30c31.99,0,58.02-26.03,58.02-58.02
	s-26.03-58.02-58.02-58.02v-30C304.53,294.07,344.02,333.56,344.02,382.09z"/>
<g>
</g>
<g>
</g>
<g>
</g>
<g>
</g>
<g>
</g>
<g>
</g>
<g>
</g>
<g>
</g>
<g>
</g>
<g>
</g>
<g>
</g>
<g>
</g>
<g>
</g>
<g>
</g>
<g>
</g>
</svg>
