<?xml version="1.0" encoding="iso-8859-1"?>
<!-- Generator: Adobe Illustrator 17.1.0, SVG Export Plug-In . SVG Version: 6.00 Build 0)  -->
<!DOCTYPE svg PUBLIC "-//W3C//DTD SVG 1.1//EN" "http://www.w3.org/Graphics/SVG/1.1/DTD/svg11.dtd">
<svg xmlns="http://www.w3.org/2000/svg" xmlns:xlink="http://www.w3.org/1999/xlink" version="1.1" id="Capa_1" x="0px" y="0px" viewBox="0 0 295.77 295.77" style="enable-background:new 0 0 295.77 295.77;" xml:space="preserve" width="512px" height="512px">
<g>
	<path d="M147.555,259.885c-7.287,0-14.411-0.708-21.314-2.043l-16.897,12.217c12.072,3.784,24.907,5.826,38.211,5.826   c13.472,0,26.461-2.098,38.666-5.975l-16.831-12.169C162.325,259.143,155.025,259.885,147.555,259.885z" fill="#209C10"/>
	<path d="M120.591,39.174l5.737-17.52c-43.842,7.35-80.199,37.055-96.905,76.96l17.59-0.04   C61.43,69.299,88.259,47.196,120.591,39.174z" fill="#209C10"/>
	<path d="M36.328,161.016l-16.762-12.238c0.236,34.459,14.158,65.723,36.592,88.623l5.655-17.544   C48.094,203.539,38.938,183.264,36.328,161.016z" fill="#209C10"/>
	<path d="M258.721,161.542c-2.661,21.787-11.599,41.661-24.948,57.752l5.674,17.601c22.038-22.745,35.729-53.617,36.091-87.63   L258.721,161.542z" fill="#209C10"/>
	<path d="M248.096,98.573l17.59,0.041c-16.617-39.693-52.677-69.297-96.205-76.842l5.757,17.578   C207.248,47.519,233.786,69.515,248.096,98.573z" fill="#209C10"/>
	<polygon points="239.283,288.534 204.677,181.188 295.77,114.682 182.984,114.424 147.885,7.237 112.786,114.424 0,114.682    91.091,181.188 56.484,288.534 147.885,222.449  " fill="#209C10"/>
</g>
<g>
</g>
<g>
</g>
<g>
</g>
<g>
</g>
<g>
</g>
<g>
</g>
<g>
</g>
<g>
</g>
<g>
</g>
<g>
</g>
<g>
</g>
<g>
</g>
<g>
</g>
<g>
</g>
<g>
</g>
</svg>
